<svg id="visual" viewBox="0 0 900 400" width="900" height="400" xmlns="http://www.w3.org/2000/svg" xmlns:xlink="http://www.w3.org/1999/xlink" version="1.1"><rect x="0" y="0" width="900" height="400" fill="#010014"></rect><path d="M0 148L21.5 143C43 138 86 128 128.8 119C171.7 110 214.3 102 257.2 110C300 118 343 142 385.8 145.3C428.7 148.7 471.3 131.3 514.2 134.5C557 137.7 600 161.3 642.8 163.8C685.7 166.3 728.3 147.7 771.2 138.8C814 130 857 131 878.5 131.5L900 132L900 401L878.5 401C857 401 814 401 771.2 401C728.3 401 685.7 401 642.8 401C600 401 557 401 514.2 401C471.3 401 428.7 401 385.8 401C343 401 300 401 257.2 401C214.3 401 171.7 401 128.8 401C86 401 43 401 21.5 401L0 401Z" fill="#fa7268"></path><path d="M0 179L21.5 179.8C43 180.7 86 182.3 128.8 183.8C171.7 185.3 214.3 186.7 257.2 192.3C300 198 343 208 385.8 208C428.7 208 471.3 198 514.2 192.2C557 186.3 600 184.7 642.8 184.5C685.7 184.3 728.3 185.7 771.2 177.7C814 169.7 857 152.3 878.5 143.7L900 135L900 401L878.5 401C857 401 814 401 771.2 401C728.3 401 685.7 401 642.8 401C600 401 557 401 514.2 401C471.3 401 428.7 401 385.8 401C343 401 300 401 257.2 401C214.3 401 171.7 401 128.8 401C86 401 43 401 21.5 401L0 401Z" fill="#ef5f67"></path><path d="M0 182L21.5 192.3C43 202.7 86 223.3 128.8 238.7C171.7 254 214.3 264 257.2 258.3C300 252.7 343 231.3 385.8 231.5C428.7 231.7 471.3 253.3 514.2 265C557 276.7 600 278.3 642.8 266.3C685.7 254.3 728.3 228.7 771.2 227C814 225.3 857 247.7 878.5 258.8L900 270L900 401L878.5 401C857 401 814 401 771.2 401C728.3 401 685.7 401 642.8 401C600 401 557 401 514.2 401C471.3 401 428.7 401 385.8 401C343 401 300 401 257.2 401C214.3 401 171.7 401 128.8 401C86 401 43 401 21.5 401L0 401Z" fill="#e34c67"></path><path d="M0 277L21.5 278.2C43 279.3 86 281.7 128.8 282.3C171.7 283 214.3 282 257.2 286.2C300 290.3 343 299.7 385.8 298.2C428.7 296.7 471.3 284.3 514.2 274C557 263.7 600 255.3 642.8 261.3C685.7 267.3 728.3 287.7 771.2 292.5C814 297.3 857 286.7 878.5 281.3L900 276L900 401L878.5 401C857 401 814 401 771.2 401C728.3 401 685.7 401 642.8 401C600 401 557 401 514.2 401C471.3 401 428.7 401 385.8 401C343 401 300 401 257.2 401C214.3 401 171.7 401 128.8 401C86 401 43 401 21.5 401L0 401Z" fill="#d53867"></path><path d="M0 341L21.5 342.8C43 344.7 86 348.3 128.8 343.8C171.7 339.3 214.3 326.7 257.2 326.7C300 326.7 343 339.3 385.8 347.5C428.7 355.7 471.3 359.3 514.2 358.3C557 357.3 600 351.7 642.8 343.2C685.7 334.7 728.3 323.3 771.2 324.2C814 325 857 338 878.5 344.5L900 351L900 401L878.5 401C857 401 814 401 771.2 401C728.3 401 685.7 401 642.8 401C600 401 557 401 514.2 401C471.3 401 428.7 401 385.8 401C343 401 300 401 257.2 401C214.3 401 171.7 401 128.8 401C86 401 43 401 21.5 401L0 401Z" fill="#c62368"></path></svg>